<svg width="25" height="26" viewBox="0 0 25 26" fill="none" xmlns="http://www.w3.org/2000/svg">
<path d="M13.729 26C17.7283 26 21.3961 24.1818 23.8265 21.1872C25.2621 19.4184 23.6967 16.8341 21.478 17.2567C17.2962 18.0531 13.4407 14.8564 13.4407 10.6149C13.4407 8.15588 14.7641 5.9282 16.8651 4.73261C18.8326 3.61288 18.3377 0.630094 16.1023 0.217191C15.3194 0.0728278 14.525 0.000129813 13.729 0C6.55057 0 0.729004 5.81826 0.729004 13C0.729004 20.1784 6.54732 26 13.729 26ZM13.729 2.4375C14.3884 2.4375 15.0335 2.49849 15.6595 2.61412C12.8787 4.19661 11.0032 7.18656 11.0032 10.6149C11.0032 16.3962 16.2662 20.7305 21.934 19.6511C19.9974 22.0372 17.0415 23.5625 13.729 23.5625C7.89551 23.5625 3.1665 18.8335 3.1665 13C3.1665 7.1665 7.89551 2.4375 13.729 2.4375Z" fill="#493EBB"/>
</svg>
