<svg width="19" height="21" viewBox="0 0 19 21" fill="none" xmlns="http://www.w3.org/2000/svg">
<path d="M12.9875 12.4688C11.8104 12.4688 11.2443 13.125 9.3125 13.125C7.38066 13.125 6.81875 12.4688 5.6375 12.4688C2.59414 12.4688 0.125 14.9379 0.125 17.9812V19.0312C0.125 20.1182 1.00684 21 2.09375 21H16.5312C17.6182 21 18.5 20.1182 18.5 19.0312V17.9812C18.5 14.9379 16.0309 12.4688 12.9875 12.4688ZM16.5312 19.0312H2.09375V17.9812C2.09375 16.0289 3.68516 14.4375 5.6375 14.4375C6.23633 14.4375 7.2084 15.0938 9.3125 15.0938C11.433 15.0938 12.3846 14.4375 12.9875 14.4375C14.9398 14.4375 16.5312 16.0289 16.5312 17.9812V19.0312ZM9.3125 11.8125C12.5732 11.8125 15.2188 9.16699 15.2188 5.90625C15.2188 2.64551 12.5732 0 9.3125 0C6.05176 0 3.40625 2.64551 3.40625 5.90625C3.40625 9.16699 6.05176 11.8125 9.3125 11.8125ZM9.3125 1.96875C11.4822 1.96875 13.25 3.73652 13.25 5.90625C13.25 8.07598 11.4822 9.84375 9.3125 9.84375C7.14277 9.84375 5.375 8.07598 5.375 5.90625C5.375 3.73652 7.14277 1.96875 9.3125 1.96875Z" fill="#493EBB"/>
</svg>
